Coordinates
version=1
nRows=14
nColumns=24
inDegrees=yes

Units are S.I. units (second, meters, Newtons, ...)
Angles are in degrees.

endheader
time	pelvis_tilt	pelvis_list	pelvis_rotation	pelvis_tx	pelvis_ty	pelvis_tz	hip_flexion_r	hip_adduction_r	hip_rotation_r	knee_angle_r	ankle_angle_r	subtalar_angle_r	mtp_angle_r	hip_flexion_l	hip_adduction_l	hip_rotation_l	knee_angle_l	ankle_angle_l	subtalar_angle_l	mtp_angle_l	lumbar_extension	lumbar_bending	lumbar_rotation
      4.47500000	    -10.00991872	      5.28806913	     -1.81139211	     -0.74951878	     -0.01546241	     -0.27764445	     27.13306544	    -10.04045410	     -6.12929837	    -60.85575579	    -10.51255497	      2.61466650	     21.25319220	     15.89309098	     10.76939514	     11.04757026	    -16.17217609	      5.02092385	      0.89343969	    -10.82669259	      8.62105048	     -8.06613470	     -5.47784200
      4.48000000	     -9.92179253	      4.99265932	     -1.65573093	     -0.74322562	     -0.01466423	     -0.27797157	     27.69379228	     -9.76179254	     -6.38998483	    -60.20114438	     -9.90852119	      2.66999904	     21.14047847	     15.05896843	     10.54266584	     11.56574967	    -15.73636065	      5.24274148	      0.60911281	    -11.23479242	      8.44376955	     -7.74327961	     -5.72096861
      4.48500000	     -9.93726277	      4.70808457	     -1.59372654	     -0.73700795	     -0.01408716	     -0.27813779	     28.39659157	     -9.42387357	     -6.52752139	    -59.49768136	     -9.39378644	      2.74294943	     21.14484513	     14.38405538	     10.26998807	     11.84336423	    -15.34087171	      5.48640716	      0.49903656	    -11.34797216	      8.39315809	     -7.41775124	     -5.82320234
      4.49000000	     -9.76667170	      4.42917980	     -1.35741905	     -0.73075244	     -0.01333443	     -0.27853989	     28.79746946	     -9.21043727	     -6.88661484	    -58.69798169	     -8.77995483	      2.89843965	     20.93588256	     13.46642847	     10.06745151	     12.46081940	    -14.91336895	      5.70240214	      0.22455179	    -11.83318234	      8.11180781	     -7.13075823	     -6.18293296
      4.49500000	     -9.68715425	      4.17692957	     -1.23101535	     -0.72452691	     -0.01279923	     -0.27875248	     29.32997733	     -8.94649358	     -7.10968717	    -57.86695907	     -8.20625531	      3.09844759	     20.69131560	     12.67781412	      9.84041168	     12.87858272	    -14.51438800	      5.99249223	      0.05695208	    -12.28104604	      7.94864036	     -6.85726601	     -6.37112489
      4.50000000	     -9.67456052	      3.93327073	     -1.12635116	     -0.71834759	     -0.01241054	     -0.27891745	     29.92501515	     -8.66970249	     -7.30698625	    -56.96100699	     -7.71002106	      3.28814145	     20.55784838	     11.99967437	      9.59873786	     13.11885138	    -14.15021928	      6.24811622	      0.00835629	    -12.49841463	      7.86245181	     -6.59010012	     -6.52894920
      4.50500000	     -9.58406189	      3.72491555	     -0.98431072	     -0.71219434	     -0.01207001	     -0.27905679	     30.41107570	     -8.43865079	     -7.51652167	    -56.01366584	     -7.16966220	      3.50279689	     20.30272301	     11.22780689	      9.39394292	     13.49856708	    -13.78101874	      6.56859906	     -0.02221722	    -12.77410042	      7.68081653	     -6.38077719	     -6.73951091
      4.51000000	     -9.64058047	      3.55375847	     -0.94072494	     -0.70608052	     -0.01199453	     -0.27908170	     31.08138273	     -8.17213743	     -7.59201214	    -55.00951868	     -6.75120889	      3.65975932	     20.24881861	     10.64894854	      9.19486473	     13.65949420	    -13.43146591	      6.82724317	     -0.01912965	    -12.80540003	      7.67862647	     -6.18125619	     -6.80067233
      4.51500000	     -9.50162416	      3.35811100	     -0.75667985	     -0.69991879	     -0.01174602	     -0.27920656	     31.44265256	     -7.97372440	     -7.86610971	    -53.91716119	     -6.18893018	      3.94819180	     19.87631198	      9.84272789	      8.99644653	     14.00141454	    -13.08722130	      7.13964915	      0.00520823	    -13.05354481	      7.44014413	     -6.00669070	     -7.06709013
      4.52000000	     -9.56067476	      3.21229924	     -0.71640741	     -0.69379452	     -0.01185406	     -0.27917252	     32.06516236	     -7.72164282	     -7.94732474	    -52.78536823	     -5.77231166	      4.14941118	     19.75575467	      9.27833541	      8.81568528	     14.12846600	    -12.75499420	      7.41435669	      0.00718548	    -13.09399654	      7.44354508	     -5.84476356	     -7.13471110
      4.52500000	     -9.45231220	      3.06151695	     -0.55271987	     -0.68767506	     -0.01182291	     -0.27918146	     32.42472882	     -7.53063033	     -8.16460136	    -51.57187982	     -5.21481447	      4.45510613	     19.35043014	      8.53199644	      8.64241433	     14.40505611	    -12.44291108	      7.73594816	      0.09545411	    -13.26639728	      7.24275793	     -5.72776527	     -7.36041761
      4.53000000	     -9.54523956	      2.96471499	     -0.52876184	     -0.68160985	     -0.01215039	     -0.27899716	     33.04513012	     -7.28360751	     -8.18106740	    -50.31245342	     -4.81766510	      4.64537619	     19.27152959	      8.02736114	      8.49820933	     14.51735450	    -12.14298703	      8.00855455	      0.10823939	    -13.25268628	      7.28026165	     -5.64187250	     -7.41423035
      4.53500000	     -9.46597620	      2.81978861	     -0.38603484	     -0.67544487	     -0.01232648	     -0.27901691	     33.38465486	     -7.09880670	     -8.43302925	    -48.96946377	     -4.26652359	      5.01892334	     18.91228015	      7.32637268	      8.32834256	     14.69224678	    -11.84992128	      8.34105032	      0.18172965	    -13.36035863	      7.12407975	     -5.51236200	     -7.61917978
      4.54000000	     -9.48479333	      2.71516512	     -0.31664678	     -0.66935109	     -0.01269336	     -0.27884229	     33.83753076	     -6.87063972	     -8.53883255	    -47.57011782	     -3.76314089	      5.34454171	     18.62164565	      6.74758995	      8.18002404	     14.82256023	    -11.57222518	      8.65060676	      0.22424688	    -13.44334179	      7.07574476	     -5.43703862	     -7.72545754
